<svg id="SvgjsSvg1001" width="288" height="288" xmlns="http://www.w3.org/2000/svg" version="1.1" xmlns:xlink="http://www.w3.org/1999/xlink" xmlns:svgjs="http://svgjs.com/svgjs"><defs id="SvgjsDefs1002"></defs><g id="SvgjsG1008"><svg xmlns="http://www.w3.org/2000/svg" viewBox="154.548 96.167 122.544 113.994" width="288" height="288"><path fill="#64b6ac" d="M 269.413 102.619 C 269.413 114.799 270.163 129.179 253.573 131.649 C 253.573 131.649 225.503 131.619 225.503 131.619 C 225.503 131.619 220.463 131.599 220.463 131.599 C 220.463 131.599 210.413 131.619 210.413 131.619 C 210.413 131.619 194.273 131.639 194.273 131.639 C 194.273 131.639 180.413 131.579 180.413 131.579 C 176.073 131.749 166.993 131.149 163.753 128.189 C 156.523 121.569 160.343 102.849 179.413 102.619 C 179.413 102.619 225.413 102.619 225.413 102.619 C 225.413 102.619 269.413 102.619 269.413 102.619 Z M 199.413 134.609 C 206.183 134.619 215.883 134.569 222.833 134.619 C 224.643 134.649 228.483 134.629 230.393 134.639 C 230.423 140.849 230.413 141.319 230.413 143.619 C 230.413 143.619 229.733 188.619 229.733 188.619 C 228.073 195.819 223.073 201.649 215.413 202.419 C 205.093 203.459 199.533 196.229 199.413 186.619 C 199.413 186.619 199.413 153.619 199.413 153.619 C 199.413 153.619 199.413 134.609 199.413 134.609 Z M 194.053 130.069" class="color4e73df svgShape"></path></svg></g></svg>